<?xml version="1.0" standalone="no"?>
<!DOCTYPE svg PUBLIC "-//W3C//DTD SVG 20010904//EN"
 "http://www.w3.org/TR/2001/REC-SVG-20010904/DTD/svg10.dtd">
<svg version="1.0" xmlns="http://www.w3.org/2000/svg"
 width="512.000000pt" height="512.000000pt" viewBox="0 0 512.000000 512.000000"
 preserveAspectRatio="xMidYMid meet">
<metadata>
Created by potrace 1.14, written by Peter Selinger 2001-2017
</metadata>
<g transform="translate(0.000000,512.000000) scale(0.100000,-0.100000)"
fill="#000000" stroke="none">
<path d="M2365 5114 c-16 -2 -73 -9 -125 -15 -263 -30 -543 -115 -805 -244
-273 -134 -476 -279 -684 -486 -207 -208 -352 -411 -486 -684 -127 -258 -204
-510 -247 -810 -17 -118 -17 -512 0 -630 43 -300 120 -555 246 -810 135 -273
280 -476 487 -684 208 -207 411 -352 684 -486 717 -353 1533 -353 2250 0 273
134 476 279 684 486 207 208 352 411 486 684 127 258 204 510 247 810 17 118
17 512 0 630 -69 486 -258 929 -549 1290 -405 502 -988 834 -1638 931 -95 14
-486 27 -550 18z m450 -1522 c182 -50 290 -131 354 -266 57 -118 75 -250 50
-368 -26 -122 -127 -252 -244 -315 -50 -26 -57 -33 -40 -39 165 -56 278 -170
327 -328 28 -89 30 -247 3 -346 -42 -162 -145 -286 -298 -359 -150 -72 -167
-74 -674 -78 l-453 -4 0 1066 0 1066 448 -3 c423 -4 451 -5 527 -26z"/>
<path d="M2120 3050 l0 -340 238 0 c253 0 334 10 411 50 64 32 118 86 148 148
25 50 28 68 28 152 -1 108 -21 169 -78 228 -81 85 -160 102 -489 102 l-258 0
0 -340z"/>
<path d="M2120 2106 l0 -386 268 0 c291 0 359 9 440 56 131 77 196 225 172
392 -23 163 -83 241 -226 294 -55 21 -80 22 -356 26 l-298 4 0 -386z"/>
</g>
</svg>
